<?xml version="1.0" standalone="no"?><!-- Generator: Adobe Fireworks CS5, Export SVG Extension by Aaron Beall (http://fireworks.abeall.com) . Version: 0.6.1  --><!DOCTYPE svg PUBLIC "-//W3C//DTD SVG 1.1//EN" "http://www.w3.org/Graphics/SVG/1.1/DTD/svg11.dtd"><svg id="Untitled-Page%201" viewBox="0 0 24 24" style="background-color:#ffffff00" version="1.1"	xmlns="http://www.w3.org/2000/svg" xmlns:xlink="http://www.w3.org/1999/xlink" xml:space="preserve"	x="0px" y="0px" width="24px" height="24px">	<g id="Layer%201">		<path d="M 11.977 0 C 5.3592 0 0 5.371 0 11.9991 C 0 18.6304 5.3592 24 11.977 24 C 18.6412 24 24 18.6302 24 11.9991 C 24 5.371 18.6412 0 11.977 0 ZM 1.9819 13.5502 C 3.48 13.3202 4.4918 13.4319 5.547 13.4681 C 5.6037 13.6146 5.6655 13.756 5.7349 13.8941 C 4.7027 13.9314 3.6526 13.8981 2.1186 14.2541 C 2.067 14.0212 2.0205 13.7884 1.9819 13.5502 ZM 9.6856 17.6435 C 9.207 17.8781 7.529 18.5441 6.6102 16.9714 C 6.6102 16.9714 6.0954 16.0356 5.1174 15.966 C 5.1174 15.966 4.1648 15.9546 5.0503 16.5593 C 5.0503 16.5593 5.6887 16.8583 6.1313 17.9843 C 6.1313 17.9843 6.7106 19.906 9.47 19.279 L 9.4772 21.1379 C 9.4772 21.1379 9.4384 21.5187 9.2814 21.7732 C 5.7368 20.8009 2.9886 17.9432 2.139 14.3393 C 3.691 13.9777 4.7569 14.015 5.7813 13.9789 C 6.4968 15.304 8.07 15.9407 10.5615 16.1995 C 10.2063 16.4395 9.8298 16.9614 9.6856 17.6435 ZM 9.2923 18.1913 C 9.2923 18.266 9.2073 18.3236 9.1044 18.3251 C 8.9987 18.3251 8.914 18.2673 8.914 18.1942 C 8.914 18.1217 8.9988 18.0615 9.1019 18.0615 C 9.2073 18.0601 9.2923 18.1205 9.2923 18.1913 ZM 8.672 18.2985 C 8.6744 18.3692 8.5894 18.4295 8.4842 18.4295 C 8.3785 18.4295 8.2937 18.3708 8.2937 18.2985 C 8.2937 18.225 8.3785 18.1656 8.4842 18.1656 C 8.5868 18.1656 8.672 18.2236 8.672 18.2985 ZM 8.0619 18.2997 C 8.0619 18.3704 7.9794 18.4308 7.874 18.432 C 7.7659 18.432 7.6836 18.3715 7.6808 18.3008 C 7.6808 18.2261 7.7659 18.1681 7.8713 18.1681 C 7.9769 18.1681 8.0619 18.2261 8.0619 18.2997 ZM 7.4465 18.0668 C 7.4465 18.1399 7.3618 18.1991 7.2561 18.1991 C 7.1531 18.1991 7.0683 18.1413 7.0683 18.0668 C 7.0683 17.9955 7.1506 17.9352 7.2561 17.9352 C 7.3618 17.9341 7.4465 17.9945 7.4465 18.0668 ZM 6.2008 16.7386 C 6.3037 16.7386 6.3913 16.7964 6.3913 16.8693 C 6.3913 16.9427 6.3036 17.0009 6.2008 17.0022 C 6.074 17.0022 6.0103 16.9231 6.0103 16.8709 C 6.0103 16.7977 6.0951 16.7386 6.2008 16.7386 ZM 5.8791 16.6226 C 5.7535 16.624 5.6879 16.5414 5.6858 16.491 C 5.6858 16.4176 5.7735 16.3598 5.8762 16.3598 C 5.9818 16.3587 6.0667 16.4176 6.0667 16.4897 C 6.0695 16.5632 5.982 16.6226 5.8791 16.6226 ZM 6.4942 17.1758 C 6.597 17.1758 6.6846 17.2349 6.6846 17.3071 C 6.6846 17.3805 6.5996 17.44 6.4967 17.4409 C 6.3913 17.4409 6.3036 17.3821 6.3036 17.3098 C 6.3037 17.2364 6.3888 17.1758 6.4942 17.1758 ZM 6.8185 17.5855 C 6.9217 17.5855 7.0066 17.6442 7.0066 17.7164 C 7.0066 17.7914 6.9242 17.8493 6.8185 17.8505 C 6.7131 17.8505 6.6281 17.7914 6.6281 17.7178 C 6.6281 17.6472 6.7131 17.5864 6.8185 17.5855 ZM 5.5392 16.1988 C 5.5392 16.2499 5.436 16.3308 5.3512 16.3315 C 5.2459 16.3315 5.1608 16.2737 5.1608 16.2002 C 5.1608 16.127 5.2459 16.0679 5.3512 16.0679 C 5.4543 16.0665 5.5392 16.1257 5.5392 16.1988 ZM 10.6293 22.0591 C 10.4953 22.0424 10.3084 22.0258 10.1772 22.0048 C 10.3135 21.8429 10.5896 21.6175 10.587 21.292 L 10.5817 19.1231 C 10.5817 19.1231 10.5045 18.266 10.9266 17.9651 L 10.889 21.5305 C 10.889 21.5303 10.7811 21.7874 10.6293 22.0591 ZM 11.9795 22.1336 C 11.9717 22.1336 11.834 22.1325 11.8288 22.1325 C 11.9138 21.9583 12.0979 21.7397 12.1083 21.4618 L 12.1237 17.8591 L 12.4199 17.8582 L 12.4581 21.4593 C 12.4714 21.7305 12.6363 21.9447 12.7135 22.113 C 12.5073 22.1246 12.1882 22.1336 11.9795 22.1336 ZM 13.7597 21.9857 C 13.6926 21.7321 13.6479 21.5148 13.6479 21.5148 L 13.6167 17.9854 C 14.0388 18.3121 13.972 19.1115 13.972 19.1115 L 13.9797 21.2802 C 13.9797 21.549 14.2078 21.7515 14.3054 21.9032 C 14.1614 21.9355 13.9039 21.9611 13.7597 21.9857 ZM 15.3953 21.6094 C 15.2073 21.4343 15.0884 21.0835 15.0884 21.0835 L 15.0784 18.4049 C 15.076 17.2966 14.4045 16.5081 13.949 16.1992 C 16.6005 15.9262 18.0749 15.2671 18.6564 13.9313 C 19.6731 13.9557 20.394 13.8461 21.8948 14.1899 C 21.1353 17.6484 18.7051 20.4688 15.3953 21.6094 ZM 21.9151 14.1062 C 20.4302 13.7652 19.7169 13.8694 18.6951 13.8439 C 18.7492 13.7089 18.7981 13.5685 18.8395 13.4242 C 19.8661 13.3764 20.6104 13.2093 22.0362 13.4061 C 22.0025 13.6429 21.9641 13.8745 21.9151 14.1062 ZM 18.8648 13.3354 C 19.0581 12.6234 19.1168 11.8063 19.112 10.8951 C 19.1093 9.5875 18.3537 8.4124 17.5557 7.6206 C 17.6922 7.1702 17.9859 6.3373 17.4713 5.0593 C 17.4713 5.0593 16.7181 4.7404 14.6845 6.1124 C 13.8866 5.9156 13.0373 5.8215 12.1882 5.8228 C 11.2509 5.8267 10.3061 5.949 9.4258 6.1948 C 7.3177 4.766 6.5213 5.0634 6.5213 5.0634 C 5.9214 6.5834 6.3927 7.5745 6.5059 7.8539 C 5.8009 8.6263 5.1452 9.7409 5.148 10.9455 C 5.1531 11.8542 5.2586 12.6702 5.5135 13.378 C 4.4556 13.3445 3.4514 13.2339 1.9715 13.4632 C 1.902 12.9858 1.8661 12.4978 1.8661 11.9995 C 1.8636 6.4032 6.3939 1.8649 11.9795 1.8649 C 17.6089 1.8649 22.1366 6.4032 22.1366 11.9991 C 22.1366 12.4472 22.1032 12.8873 22.0463 13.3198 C 20.6332 13.123 19.8946 13.289 18.8648 13.3354 Z" fill="#ffffff"/>	</g></svg>